# xmcd
#
# Track frame offsets:
#	150
#	15930
#	33722
#	54355
#	70735
#	86307
#	102512
#	119290
#	132670
#	154745
#	167035
#	180577
#	199312
#	217142
#	234320
#	249497
#
# Disc length: 3533 seconds
#
# Revision: 1
# Processed by: cddbd v1.5.1PL0 Copyright (c) Steve Scherf et al.
# Submitted via: audiograbber 1.80
#
DISCID=da0dcb10
DTITLE=Diversos - Boleros - Disco 1
DYEAR=1900
DGENRE=
TTITLE0=Entre o ceu e o mar
TTITLE1=Bonito demais
TTITLE2=Um bolero uma paixão
TTITLE3=No se porque te quiero
TTITLE4=Começaria tudo outra vez
TTITLE5=Dilema
TTITLE6=Inovilable
TTITLE7=Nosotros
TTITLE8=Mas altas
TTITLE9=Amor informal
TTITLE10=Suave veneno
TTITLE11=Besame
TTITLE12=Bolero de neblina
TTITLE13=Adoro amar você
TTITLE14=Um bolero qualquer
TTITLE15=Love
EXTD=
EXTT0=
EXTT1=
EXTT2=
EXTT3=
EXTT4=
EXTT5=
EXTT6=
EXTT7=
EXTT8=
EXTT9=
EXTT10=
EXTT11=
EXTT12=
EXTT13=
EXTT14=
EXTT15=
PLAYORDER=
